<svg width="144" height="17" viewBox="0 0 144 17" fill="none" xmlns="http://www.w3.org/2000/svg">
<path d="M1.35964 0.353507H9.10961C13.2429 0.353507 17.2131 3.34472 17.2131 7.85874C17.2131 12.3728 13.2429 15.3912 9.10961 15.3912H1.35964V0.353507ZM4.75875 3.4263V12.2912H9.10961C11.8289 12.2912 13.814 10.4421 13.814 7.85874C13.814 5.27542 11.8289 3.4263 9.10961 3.4263H4.75875ZM19.6564 0.353507H33.3072V3.4263H23.0555V6.19997H32.2739V9.27277H23.0555V12.264H33.6879V15.3912H19.6564V0.353507ZM36.2271 0.353507H49.8779V3.4263H39.6262V6.19997H48.8445V9.27277H39.6262V12.264H50.2586V15.3912H36.2271V0.353507ZM52.7977 0.353507H61.6626C65.1976 0.353507 67.8625 2.71929 67.8625 6.25436C67.8625 9.78943 65.1976 12.0464 61.6626 12.0464H56.1968V15.3912H52.7977V0.353507ZM56.1968 3.45349V8.94645H61.5266C63.267 8.94645 64.4634 7.9947 64.4634 6.25436C64.4634 4.51402 63.267 3.45349 61.5266 3.45349H56.1968Z" fill="#28282B"/>
<path d="M91.1798 2.22981L89.5482 4.73156C87.7806 3.50788 85.9859 3.01841 83.5929 3.01841C80.6561 3.01841 79.9491 3.77981 79.9491 4.62279C79.9491 5.49296 80.7377 5.7105 81.907 5.84647L86.421 6.36313C89.6298 6.74383 91.6148 8.10347 91.6148 10.8771C91.6148 14.2491 88.3245 15.7719 83.8105 15.7719C80.7377 15.7719 78.4263 15.1192 76.0333 13.3517L77.6377 10.714C79.7044 12.1552 81.7166 12.8078 84.1912 12.8078C86.5842 12.8078 88.3245 12.2096 88.3245 10.9315C88.3245 10.1157 87.8894 9.70785 86.6114 9.57189L81.5535 9.00084C78.4807 8.64733 76.6044 7.45084 76.6044 4.64998C76.6044 1.46841 79.7588 -7.0998e-07 83.5929 -7.0998e-07C86.3938 -7.0998e-07 88.8412 0.489471 91.1798 2.22981ZM94.0456 0.353507H107.696V3.4263H97.4447V6.19997H106.663V9.27277H97.4447V12.264H108.077V15.3912H94.0456V0.353507ZM110.616 0.353507H124.267V3.4263H114.015V6.19997H123.234V9.27277H114.015V12.264H124.648V15.3912H110.616V0.353507ZM127.187 0.353507H130.559V5.90085H134.937L138.717 0.353507H142.632L137.819 7.31488L142.986 15.3912H138.961L135.018 9.00084H130.559V15.3912H127.187V0.353507Z" fill="#28282B"/>
<circle cx="72.0224" cy="8.70577" r="2.02244" fill="#386FDE"/>
</svg>
